<?xml version="1.0" encoding="utf-8"?>
<!-- Generator: Adobe Illustrator 20.0.0, SVG Export Plug-In . SVG Version: 6.00 Build 0)  -->
<svg version="1.1" id="Слой_1" xmlns="http://www.w3.org/2000/svg" xmlns:xlink="http://www.w3.org/1999/xlink" x="0px" y="0px"
	 viewBox="0 0 1067 844.3" style="enable-background:new 0 0 1067 844.3;" xml:space="preserve">
<style type="text/css">
	.st0{fill:#9BDAD9;}
</style>
<g>
	<g>
		<path class="st0" d="M0,122.2c122.2,0,122.2,0,122.2-122.2c0,122.2,0,122.2,122.2,122.2c-122.2,0-122.2,0-122.2,122.2
			C122.2,122.2,122.2,122.2,0,122.2z"/>
		<path class="st0" d="M403.5,741.6c102.7,0,102.7,0,102.7-102.7c0,102.7,0,102.7,102.7,102.7c-102.7,0-102.7,0-102.7,102.7
			C506.2,741.6,506.2,741.6,403.5,741.6z"/>
		<path class="st0" d="M540.6,149.7c40.5,0,40.5,0,40.5-40.5c0,40.5,0,40.5,40.5,40.5c-40.5,0-40.5,0-40.5,40.5
			C581.1,149.7,581.1,149.7,540.6,149.7z"/>
		<path class="st0" d="M647.7,438.6c75.7,0,75.7,0,75.7-75.7c0,75.7,0,75.7,75.7,75.7c-75.7,0-75.7,0-75.7,75.7
			C723.4,438.6,723.4,438.6,647.7,438.6z"/>
		<path class="st0" d="M236.8,458.8c42.6,0,42.6,0,42.6-42.6c0,42.6,0,42.6,42.6,42.6c-42.6,0-42.6,0-42.6,42.6
			C279.4,458.8,279.4,458.8,236.8,458.8z"/>
		<path class="st0" d="M893.2,119.7c75.7,0,75.7,0,75.7-75.7c0,75.7,0,75.7,75.7,75.7c-75.7,0-75.7,0-75.7,75.7
			C968.9,119.7,968.9,119.7,893.2,119.7z"/>
	</g>
</g>
<g>
	<path class="st0" d="M309.5,372c-21.2,20.8-47.1,31.1-77.8,31.1c-30.7,0-56.6-10.4-77.8-31.1c-21.2-20.8-31.7-46.4-31.7-76.9
		c0-30.5,10.6-56.1,31.7-76.9c21.2-20.8,47.1-31.1,77.8-31.1c30.7,0,56.6,10.4,77.8,31.1c21.2,20.8,31.7,46.4,31.7,76.9
		C341.3,325.6,330.7,351.2,309.5,372z M195.6,330.9c9.5,9.5,21.6,14.3,36.2,14.3c14.6,0,26.6-4.8,36.2-14.3
		c9.5-9.5,14.3-21.5,14.3-35.9c0-14.4-4.8-26.3-14.3-35.9c-9.5-9.5-21.6-14.3-36.2-14.3c-14.6,0-26.6,4.8-36.2,14.3
		c-9.5,9.5-14.3,21.5-14.3,35.9C181.3,309.4,186,321.4,195.6,330.9z"/>
	<path class="st0" d="M471.7,191.7h59v206.7h-59v-76.2h-50.2v76.2h-59V191.7h59V265h50.2V191.7z"/>
	<path class="st0" d="M834.8,191.7v206.7h-59V297.7l-46.1,77.4h-5.3l-46.1-77.4v100.7h-59V191.7h59l48.7,84.1l48.7-84.1H834.8z"/>
	<path class="st0" d="M1044.6,191.7l-70,128.1v78.5h-59v-78.5l-70-128.1h65.5l33.9,72.6l34-72.6H1044.6z"/>
	<path class="st0" d="M262.5,584.6c17.7,10,26.6,25.3,26.6,45.8c0,18.9-6.2,33.8-18.5,44.6c-12.3,10.8-30.2,16.2-53.6,16.2h-87.4
		V484.5h82.1c23.2,0,40.9,5,53.1,15.1c12.2,10,18.3,24.4,18.3,43.1C283.1,560.6,276.2,574.6,262.5,584.6z M208.1,535.3h-19.5v27.7
		l22.7-0.3c8.5-1.2,12.7-5.7,12.7-13.6c0-4.5-1.6-8-4.7-10.3C216.2,536.5,212.5,535.3,208.1,535.3z M213.4,640.4
		c4.7,0,8.7-1.4,11.8-4.1c3.1-2.8,4.7-6.3,4.7-10.6c0-8.3-4.4-13.1-13.3-14.5l-28-0.3v29.5H213.4z"/>
	<path class="st0" d="M486.7,664.8c-21.2,20.8-47.1,31.1-77.8,31.1c-30.7,0-56.6-10.4-77.8-31.1c-21.2-20.8-31.7-46.4-31.7-76.9
		c0-30.5,10.6-56.1,31.7-76.9c21.2-20.8,47.1-31.1,77.8-31.1c30.7,0,56.6,10.4,77.8,31.1c21.2,20.8,31.7,46.4,31.7,76.9
		C518.5,618.4,507.9,644,486.7,664.8z M372.8,623.7c9.5,9.5,21.6,14.3,36.2,14.3c14.6,0,26.6-4.8,36.2-14.3
		c9.5-9.5,14.3-21.5,14.3-35.9c0-14.4-4.8-26.3-14.3-35.9c-9.5-9.5-21.6-14.3-36.2-14.3c-14.6,0-26.6,4.8-36.2,14.3
		c-9.5,9.5-14.3,21.5-14.3,35.9C358.5,602.2,363.2,614.2,372.8,623.7z"/>
	<path class="st0" d="M716.5,664.8c-21.2,20.8-47.1,31.1-77.8,31.1c-30.7,0-56.6-10.4-77.8-31.1c-21.2-20.8-31.7-46.4-31.7-76.9
		c0-30.5,10.6-56.1,31.7-76.9c21.2-20.8,47.1-31.1,77.8-31.1c30.7,0,56.6,10.4,77.8,31.1c21.2,20.8,31.7,46.4,31.7,76.9
		C748.2,618.4,737.6,644,716.5,664.8z M602.5,623.7c9.5,9.5,21.6,14.3,36.2,14.3c14.6,0,26.6-4.8,36.2-14.3
		c9.5-9.5,14.3-21.5,14.3-35.9c0-14.4-4.8-26.3-14.3-35.9c-9.6-9.5-21.6-14.3-36.2-14.3c-14.6,0-26.6,4.8-36.2,14.3
		c-9.5,9.5-14.3,21.5-14.3,35.9C588.2,602.2,593,614.2,602.5,623.7z"/>
	<path class="st0" d="M945.3,691.2h-65.5l-51.4-88.6v88.6h-59V484.5h59v82.5l48.4-82.5h65.5l-61.4,100.4L945.3,691.2z"/>
	<path class="st0" d="M962.1,614.4l-10.3-70.9v-59h67.9v59l-10.3,70.9H962.1z M1009.8,685.7c-6.6,6.6-14.6,9.9-24.1,9.9
		c-9.4,0-17.5-3.3-24.1-9.9c-6.6-6.6-9.9-14.6-9.9-24.1c0-9.4,3.3-17.5,9.9-24.1c6.6-6.6,14.6-9.9,24.1-9.9c9.4,0,17.5,3.3,24.1,9.9
		c6.6,6.6,9.9,14.6,9.9,24.1C1019.7,671.1,1016.4,679.1,1009.8,685.7z"/>
</g>
</svg>
