<?xml version="1.0" encoding="utf-8"?>
<!-- Generator: Adobe Illustrator 20.0.0, SVG Export Plug-In . SVG Version: 6.00 Build 0)  -->
<svg version="1.1" id="Слой_1" xmlns="http://www.w3.org/2000/svg" xmlns:xlink="http://www.w3.org/1999/xlink" x="0px" y="0px"
	 viewBox="0 0 1067 844.3" style="enable-background:new 0 0 1067 844.3;" xml:space="preserve">
<style type="text/css">
	.st0{fill:#9BDAD9;}
</style>
<g>
	<g>
		<path class="st0" d="M0,122.2c122.2,0,122.2,0,122.2-122.2c0,122.2,0,122.2,122.2,122.2c-122.2,0-122.2,0-122.2,122.2
			C122.2,122.2,122.2,122.2,0,122.2z"/>
		<path class="st0" d="M403.5,741.6c102.7,0,102.7,0,102.7-102.7c0,102.7,0,102.7,102.7,102.7c-102.7,0-102.7,0-102.7,102.7
			C506.2,741.6,506.2,741.6,403.5,741.6z"/>
		<path class="st0" d="M540.6,149.7c40.5,0,40.5,0,40.5-40.5c0,40.5,0,40.5,40.5,40.5c-40.5,0-40.5,0-40.5,40.5
			C581.1,149.7,581.1,149.7,540.6,149.7z"/>
		<path class="st0" d="M647.7,438.6c75.7,0,75.7,0,75.7-75.7c0,75.7,0,75.7,75.7,75.7c-75.7,0-75.7,0-75.7,75.7
			C723.4,438.6,723.4,438.6,647.7,438.6z"/>
		<path class="st0" d="M236.8,458.8c42.6,0,42.6,0,42.6-42.6c0,42.6,0,42.6,42.6,42.6c-42.6,0-42.6,0-42.6,42.6
			C279.4,458.8,279.4,458.8,236.8,458.8z"/>
		<path class="st0" d="M893.2,119.7c75.7,0,75.7,0,75.7-75.7c0,75.7,0,75.7,75.7,75.7c-75.7,0-75.7,0-75.7,75.7
			C968.9,119.7,968.9,119.7,893.2,119.7z"/>
	</g>
	<g>
		<g>
			<path class="st0" d="M315.3,372.5c-21.4,21-47.6,31.5-78.6,31.5c-31,0-57.2-10.5-78.6-31.5c-21.4-21-32.1-46.9-32.1-77.7
				c0-30.8,10.7-56.7,32.1-77.7c21.4-21,47.6-31.5,78.6-31.5c31,0,57.2,10.5,78.6,31.5c21.4,21,32.1,46.9,32.1,77.7
				C347.3,325.6,336.7,351.5,315.3,372.5z M200.2,331c9.6,9.6,21.8,14.5,36.5,14.5c14.7,0,26.9-4.8,36.5-14.5
				c9.6-9.6,14.5-21.7,14.5-36.2c0-14.5-4.8-26.6-14.5-36.2c-9.6-9.6-21.8-14.5-36.5-14.5c-14.7,0-26.9,4.8-36.5,14.5
				c-9.6,9.6-14.5,21.7-14.5,36.2C185.7,309.3,190.5,321.4,200.2,331z"/>
			<path class="st0" d="M480,190.5h59.6v208.7H480v-76.9h-50.7v76.9h-59.6V190.5h59.6v73.9H480V190.5z"/>
			<path class="st0" d="M851.1,190.5v208.7h-59.6V297.5L745,375.6h-5.4l-46.5-78.1v101.7h-59.6V190.5h59.6l49.2,85l49.2-85H851.1z"
				/>
			<path class="st0" d="M1067,190.5l-70.7,129.4v79.3h-59.6v-79.3l-70.7-129.4h66.2l34.3,73.3l34.3-73.3H1067z"/>
			<path class="st0" d="M202,637h68.6v57.8H142.3V486.1H202V637z"/>
			<path class="st0" d="M465.6,668.2c-21.4,21-47.6,31.5-78.6,31.5c-31,0-57.2-10.5-78.6-31.5c-21.4-21-32.1-46.9-32.1-77.7
				c0-30.8,10.7-56.7,32.1-77.7c21.4-21,47.6-31.5,78.6-31.5c31,0,57.2,10.5,78.6,31.5c21.4,21,32.1,46.9,32.1,77.7
				C497.6,621.3,487,647.2,465.6,668.2z M350.5,626.7c9.6,9.6,21.8,14.5,36.5,14.5c14.7,0,26.9-4.8,36.5-14.5
				c9.6-9.6,14.5-21.7,14.5-36.2c0-14.5-4.8-26.6-14.5-36.2c-9.6-9.6-21.8-14.5-36.5-14.5c-14.7,0-26.9,4.8-36.5,14.5
				c-9.6,9.6-14.5,21.7-14.5,36.2C336,605,340.9,617.1,350.5,626.7z"/>
			<path class="st0" d="M706.1,668.2c-21.4,21-47.6,31.5-78.6,31.5c-31,0-57.2-10.5-78.6-31.5c-21.4-21-32.1-46.9-32.1-77.7
				c0-30.8,10.7-56.7,32.1-77.7c21.4-21,47.6-31.5,78.6-31.5c31,0,57.2,10.5,78.6,31.5c21.4,21,32.1,46.9,32.1,77.7
				C738.2,621.3,727.5,647.2,706.1,668.2z M591,626.7c9.6,9.6,21.8,14.5,36.5,14.5c14.7,0,26.9-4.8,36.5-14.5
				c9.6-9.6,14.5-21.7,14.5-36.2c0-14.5-4.8-26.6-14.5-36.2c-9.6-9.6-21.8-14.5-36.5-14.5c-14.7,0-26.9,4.8-36.5,14.5
				c-9.6,9.6-14.5,21.7-14.5,36.2C576.6,605,581.4,617.1,591,626.7z"/>
			<path class="st0" d="M942.6,694.9h-66.2l-51.9-89.5v89.5h-59.6V486.1h59.6v83.4l48.9-83.4h66.2l-62,101.4L942.6,694.9z"/>
			<path class="st0" d="M983.1,617.3l-10.4-131.2h68.6l-10.4,131.2H983.1z M1031.2,689.3c-6.7,6.7-14.8,10-24.3,10
				c-9.5,0-17.6-3.3-24.3-10c-6.7-6.7-10-14.8-10-24.3c0-9.5,3.3-17.6,10-24.3c6.7-6.7,14.8-10,24.3-10c9.5,0,17.6,3.3,24.3,10
				c6.7,6.7,10,14.8,10,24.3C1041.2,674.6,1037.9,682.7,1031.2,689.3z"/>
		</g>
	</g>
</g>
</svg>
