<?xml version="1.0" encoding="utf-8"?>
<!-- Generator: Adobe Illustrator 19.0.0, SVG Export Plug-In . SVG Version: 6.00 Build 0)  -->
<svg version="1.1" id="Layer_1" xmlns="http://www.w3.org/2000/svg" xmlns:xlink="http://www.w3.org/1999/xlink" x="0px" y="0px"
	 viewBox="0 0 512 512" style="enable-background:new 0 0 512 512;" xml:space="preserve">
<g id="XMLID_2_">
	<path id="XMLID_6_" d="M208.5,433.8c0,0.9,0,2.8,0,6.5c0,3.7,0,6.5,0,8.4s0,4.7-0.9,7.4s-1.9,4.7-3.7,6.5c-1.9,1.9-3.7,1.9-6.5,1.9
		H94c-26.1,0-48.4-9.3-66.1-27.9C9.3,418,0,395.6,0,370.5v-229c0-26.1,9.3-48.4,27.9-66.1s41-27.9,66.1-27.9h104.3
		c2.8,0,5.6,0.9,7.4,2.8c1.9,1.9,2.8,4.7,2.8,7.4c0,0.9,0,2.8,0,6.5c0,3.7,0,6.5,0,8.4c0,1.9,0,4.7-0.9,7.4
		c-0.9,2.8-1.9,4.7-3.7,6.5c0,1.9-2.8,1.9-5.6,1.9H94c-14,0-27,4.7-37.2,14.9s-14.9,22.3-14.9,37.2v229.9c0,14,4.7,27,14.9,37.2
		C67,418,79.1,422.6,94,422.6h101.5h3.7l3.7,0.9l2.8,1.9l1.9,2.8L208.5,433.8z M512,256c0,5.6-1.9,10.2-6.5,14.9L328.6,448.7
		c-3.7,3.7-9.3,6.5-14.9,6.5s-10.2-1.9-14.9-6.5c-3.7-3.7-6.5-9.3-6.5-14.9v-94H146.2c-5.6,0-10.2-1.9-14.9-6.5
		c-4.7-4.7-6.5-9.3-6.5-14.9V193.6c0-5.6,1.9-10.2,6.5-14.9c3.7-3.7,9.3-6.5,14.9-6.5h146.2v-94c0-5.6,1.9-10.2,6.5-14.9
		c3.7-3.7,9.3-6.5,14.9-6.5s10.2,1.9,14.9,6.5l177.8,177.8C510.1,245.8,512,250.4,512,256z"/>
</g>
</svg>
